<svg xmlns:xlink="http://www.w3.org/1999/xlink" viewBox="0 0 507 626" height="626" xmlns="http://www.w3.org/2000/svg" width="507"><defs/><g transform="translate(-283.00,-736.70)"><path id="shape1" d="M506.0,80.0L506.0,.0L.0,.0L.0,80.0L506.0,80.0z" fill="#7d868c" fill-rule="nonzero" transform="translate(283.713000,1253.950000)"/><g id="shape2" transform="translate(433.873000,1274.950000)"><path d="M81.7,38.0L81.7,.0L.0,.0L.0,38.0L81.7,38.0z" fill="none" stroke-width="2" stroke="#ffffff"/><text style="fill:#ffffff;font-family:Lato,PingFang SC,Mircrosoft YaHei,Arial;font-size:12.00pt" xml:space="preserve"><tspan y="26.0" style="font-family:Lato,PingFang SC,Mircrosoft YaHei,Arial" x="10.4">Ethernet</tspan></text></g><g id="shape3" transform="translate(649.849300,1274.950000)"><path d="M115.0,38.0L115.0,.0L.0,.0L.0,38.0L115.0,38.0z" fill="none" stroke-width="2" stroke="#ffffff"/><text style="fill:#ffffff;font-family:Lato,PingFang SC,Mircrosoft YaHei,Arial;font-size:12.00pt" xml:space="preserve"><tspan y="26.0" style="font-family:Lato,PingFang SC,Mircrosoft YaHei,Arial" x="41.0">WiFi</tspan></text></g><g id="shape4" transform="translate(298.283000,1266.450000)"><path d="M478.5,55.5L478.5,.0L.0,.0L.0,55.5L478.5,55.5z" fill="none" stroke-width="2.666670083999634" stroke="#00c1de"/><text style="fill:#ffffff;font-family:Lato,PingFang SC,Mircrosoft YaHei,Arial;font-size:14.00pt" xml:space="preserve"><tspan y="23.0" style="font-family:Lato,PingFang SC,Mircrosoft YaHei,Arial" x="4.2">CMSIS-Driver*</tspan></text></g><path id="shape5" d="M506.3,159.0L506.3,.0L.0,.0L.0,159.0L506.3,159.0z" fill="#333e48" fill-rule="nonzero" transform="translate(283.857000,823.701000)"/><g id="shape6" transform="translate(391.132300,842.244300)"><path d="M132.9,52.9L132.9,.0L.0,.0L.0,52.9L132.9,52.9z" fill="none" stroke-width="2" stroke="#ffffff"/><text style="fill:#ffffff;font-family:Lato,PingFang SC,Mircrosoft YaHei,Arial;font-size:9.00pt" xml:space="preserve"><tspan y="26.0" style="font-family:Lato,PingFang SC,Mircrosoft YaHei,Arial;font-size:12.00pt" x="25.3">Web Server</tspan><tspan y="42.0" style="font-family:Lato,PingFang SC,Mircrosoft YaHei,Arial" x="30.8">Compact/Full</tspan></text></g><g id="shape7" transform="translate(544.187800,842.244300)"><path d="M60.5,52.9L60.5,.0L.0,.0L.0,52.9L60.5,52.9z" fill="none" stroke-width="2" stroke="#ffffff"/><text style="fill:#ffffff;font-family:Lato,PingFang SC,Mircrosoft YaHei,Arial;font-size:9.00pt" xml:space="preserve"><tspan y="26.0" style="font-family:Lato,PingFang SC,Mircrosoft YaHei,Arial;font-size:12.00pt" x="16.2">FTP</tspan><tspan y="42.0" style="font-family:Lato,PingFang SC,Mircrosoft YaHei,Arial" x="13.3">Server</tspan></text></g><g id="shape8" transform="translate(298.428000,834.701000)"><path d="M478.8,133.0L478.8,.0L.0,.0L.0,133.0L478.8,133.0z" fill="none" stroke-width="2.666670083999634" stroke="#00c1de"/><text style="fill:#ffffff;font-family:Lato,PingFang SC,Mircrosoft YaHei,Arial;font-size:14.00pt" xml:space="preserve"><tspan y="23.0" style="font-family:Lato,PingFang SC,Mircrosoft YaHei,Arial" x="4.4">Service</tspan></text></g><g id="shape9" transform="translate(624.799800,842.244300)"><path d="M60.5,52.9L60.5,.0L.0,.0L.0,52.9L60.5,52.9z" fill="none" stroke-width="2" stroke="#ffffff"/><text style="fill:#ffffff;font-family:Lato,PingFang SC,Mircrosoft YaHei,Arial;font-size:9.00pt" xml:space="preserve"><tspan y="26.0" style="font-family:Lato,PingFang SC,Mircrosoft YaHei,Arial;font-size:12.00pt" x="11.5">TFTP</tspan><tspan y="42.0" style="font-family:Lato,PingFang SC,Mircrosoft YaHei,Arial" x="13.3">Server</tspan></text></g><g id="shape10" transform="translate(704.809800,842.244300)"><path d="M60.5,52.9L60.5,.0L.0,.0L.0,52.9L60.5,52.9z" fill="none" stroke-width="2" stroke="#ffffff"/><text style="fill:#ffffff;font-family:Lato,PingFang SC,Mircrosoft YaHei,Arial;font-size:9.00pt" xml:space="preserve"><tspan y="26.0" style="font-family:Lato,PingFang SC,Mircrosoft YaHei,Arial;font-size:12.00pt" x="8.9">Telnet</tspan><tspan y="42.0" style="font-family:Lato,PingFang SC,Mircrosoft YaHei,Arial" x="13.3">Server</tspan></text></g><g id="shape11" transform="translate(544.187800,906.787300)"><path d="M60.5,52.9L60.5,.0L.0,.0L.0,52.9L60.5,52.9z" fill="none" stroke-width="2" stroke="#ffffff"/><text style="fill:#ffffff;font-family:Lato,PingFang SC,Mircrosoft YaHei,Arial;font-size:9.00pt" xml:space="preserve"><tspan y="26.0" style="font-family:Lato,PingFang SC,Mircrosoft YaHei,Arial;font-size:12.00pt" x="16.2">FTP</tspan><tspan y="42.0" style="font-family:Lato,PingFang SC,Mircrosoft YaHei,Arial" x="14.8">Client</tspan></text></g><g id="shape12" transform="translate(624.799800,906.787300)"><path d="M60.5,52.9L60.5,.0L.0,.0L.0,52.9L60.5,52.9z" fill="none" stroke-width="2" stroke="#ffffff"/><text style="fill:#ffffff;font-family:Lato,PingFang SC,Mircrosoft YaHei,Arial;font-size:9.00pt" xml:space="preserve"><tspan y="26.0" style="font-family:Lato,PingFang SC,Mircrosoft YaHei,Arial;font-size:12.00pt" x="11.5">TFTP</tspan><tspan y="42.0" style="font-family:Lato,PingFang SC,Mircrosoft YaHei,Arial" x="14.8">Client</tspan></text></g><g id="shape13" transform="translate(704.809800,906.787300)"><path d="M60.5,52.9L60.5,.0L.0,.0L.0,52.9L60.5,52.9z" fill="none" stroke-width="2" stroke="#ffffff"/><text style="fill:#ffffff;font-family:Lato,PingFang SC,Mircrosoft YaHei,Arial;font-size:9.00pt" xml:space="preserve"><tspan y="26.0" style="font-family:Lato,PingFang SC,Mircrosoft YaHei,Arial;font-size:12.00pt" x="9.0">SMTP</tspan><tspan y="42.0" style="font-family:Lato,PingFang SC,Mircrosoft YaHei,Arial" x="14.8">Client</tspan></text></g><g id="shape14" transform="translate(311.130800,906.787300)"><path d="M60.5,52.9L60.5,.0L.0,.0L.0,52.9L60.5,52.9z" fill="none" stroke-width="2" stroke="#ffffff"/><text style="fill:#ffffff;font-family:Lato,PingFang SC,Mircrosoft YaHei,Arial;font-size:9.00pt" xml:space="preserve"><tspan y="26.0" style="font-family:Lato,PingFang SC,Mircrosoft YaHei,Arial;font-size:12.00pt" x="7.6">SNMP</tspan><tspan y="42.0" style="font-family:Lato,PingFang SC,Mircrosoft YaHei,Arial" x="14.8">Client</tspan></text></g><g id="shape15" transform="translate(391.132800,906.787300)"><path d="M60.5,52.9L60.5,.0L.0,.0L.0,52.9L60.5,52.9z" fill="none" stroke-width="2" stroke="#ffffff"/><text style="fill:#ffffff;font-family:Lato,PingFang SC,Mircrosoft YaHei,Arial;font-size:9.00pt" xml:space="preserve"><tspan y="26.0" style="font-family:Lato,PingFang SC,Mircrosoft YaHei,Arial;font-size:12.00pt" x="10.3">SNTP</tspan><tspan y="42.0" style="font-family:Lato,PingFang SC,Mircrosoft YaHei,Arial" x="14.8">Client</tspan></text></g><g id="shape16" transform="translate(471.134300,906.787300)"><path d="M52.9,52.9L52.9,.0L.0,.0L.0,52.9L52.9,52.9z" fill="none" stroke-width="2" stroke="#ffffff"/><text style="fill:#ffffff;font-family:Lato,PingFang SC,Mircrosoft YaHei,Arial;font-size:9.00pt" xml:space="preserve"><tspan y="26.0" style="font-family:Lato,PingFang SC,Mircrosoft YaHei,Arial;font-size:12.00pt" x="9.9">DNS</tspan><tspan y="42.0" style="font-family:Lato,PingFang SC,Mircrosoft YaHei,Arial" x="11.0">Client</tspan></text></g><g id="shape17" transform="translate(534.395600,1274.950000)"><path d="M96.6,38.0L96.6,.0L.0,.0L.0,38.0L96.6,38.0z" fill="none" stroke-width="2" stroke="#ffffff"/><text style="fill:#ffffff;font-family:Lato,PingFang SC,Mircrosoft YaHei,Arial;font-size:12.00pt" xml:space="preserve"><tspan y="26.0" style="font-family:Lato,PingFang SC,Mircrosoft YaHei,Arial" x="23.2">USART</tspan></text></g><path id="shape18" d="M506.3,80.0L506.3,.0L.0,.0L.0,80.0L506.3,80.0z" fill="#7d868c" fill-rule="nonzero" transform="translate(283.571000,1166.950000)"/><g id="shape19" transform="translate(433.730100,1187.950000)"><path d="M82.0,38.0L82.0,.0L.0,.0L.0,38.0L82.0,38.0z" fill="none" stroke-width="2" stroke="#ffffff"/><text style="fill:#ffffff;font-family:Lato,PingFang SC,Mircrosoft YaHei,Arial;font-size:12.00pt" xml:space="preserve"><tspan y="26.0" style="font-family:Lato,PingFang SC,Mircrosoft YaHei,Arial" x="5.5">Mbed TLS</tspan></text></g><g id="shape20" transform="translate(298.141000,1179.450000)"><path d="M478.8,55.5L478.8,.0L.0,.0L.0,55.5L478.8,55.5z" fill="none" stroke-width="2.666670083999634" stroke="#00c1de"/><text style="fill:#ffffff;font-family:Lato,PingFang SC,Mircrosoft YaHei,Arial;font-size:14.00pt" xml:space="preserve"><tspan y="23.0" style="font-family:Lato,PingFang SC,Mircrosoft YaHei,Arial" x="4.4">SSL/TLS*</tspan></text></g><path id="shape21" d="M506.3,80.0L506.3,.0L.0,.0L.0,80.0L506.3,80.0z" fill="#333e48" fill-rule="nonzero" transform="translate(283.857000,991.950000)"/><g id="shape22" transform="translate(434.016100,1012.950000)"><path d="M82.0,38.0L82.0,.0L.0,.0L.0,38.0L82.0,38.0z" fill="none" stroke-width="2" stroke="#ffffff"/><text style="fill:#ffffff;font-family:Lato,PingFang SC,Mircrosoft YaHei,Arial;font-size:12.00pt" xml:space="preserve"><tspan y="26.0" style="font-family:Lato,PingFang SC,Mircrosoft YaHei,Arial" x="25.4">BSD</tspan></text></g><g id="shape23" transform="translate(622.276900,1013.200000)"><path d="M143.0,38.0L143.0,.0L.0,.0L.0,38.0L143.0,38.0z" fill="none" stroke-width="2" stroke="#ffffff"/><text style="fill:#ffffff;font-family:Lato,PingFang SC,Mircrosoft YaHei,Arial;font-size:12.00pt" xml:space="preserve"><tspan y="26.0" style="font-family:Lato,PingFang SC,Mircrosoft YaHei,Arial" x="54.7">UDP</tspan></text></g><g id="shape24" transform="translate(298.427000,1004.450000)"><path d="M478.8,55.5L478.8,.0L.0,.0L.0,55.5L478.8,55.5z" fill="none" stroke-width="2.666670083999634" stroke="#00c1de"/><text style="fill:#ffffff;font-family:Lato,PingFang SC,Mircrosoft YaHei,Arial;font-size:14.00pt" xml:space="preserve"><tspan y="23.0" style="font-family:Lato,PingFang SC,Mircrosoft YaHei,Arial" x="4.4">Socket</tspan></text></g><g id="shape25" transform="translate(534.824200,1013.200000)"><path d="M68.0,38.0L68.0,.0L.0,.0L.0,38.0L68.0,38.0z" fill="none" stroke-width="2" stroke="#ffffff"/><text style="fill:#ffffff;font-family:Lato,PingFang SC,Mircrosoft YaHei,Arial;font-size:12.00pt" xml:space="preserve"><tspan y="26.0" style="font-family:Lato,PingFang SC,Mircrosoft YaHei,Arial" x="19.4">TCP</tspan></text></g><path id="shape26" d="M506.0,80.0L506.0,.0L.0,.0L.0,80.0L506.0,80.0z" fill="#333e48" fill-rule="nonzero" transform="translate(283.856000,1078.950000)"/><g id="shape27" transform="translate(434.016100,1099.950000)"><path d="M82.0,38.0L82.0,.0L.0,.0L.0,38.0L82.0,38.0z" fill="none" stroke-width="2" stroke="#ffffff"/><text style="fill:#ffffff;font-family:Lato,PingFang SC,Mircrosoft YaHei,Arial;font-size:12.00pt" xml:space="preserve"><tspan y="26.0" style="font-family:Lato,PingFang SC,Mircrosoft YaHei,Arial" x="10.6">Ethernet</tspan></text></g><g id="shape28" transform="translate(622.276900,1100.330000)"><path d="M143.0,38.0L143.0,.0L.0,.0L.0,38.0L143.0,38.0z" fill="none" stroke-width="2" stroke="#ffffff"/><text style="fill:#ffffff;font-family:Lato,PingFang SC,Mircrosoft YaHei,Arial;font-size:12.00pt" xml:space="preserve"><tspan y="26.0" style="font-family:Lato,PingFang SC,Mircrosoft YaHei,Arial" x="12.9">Serial (PPP/SLIP)</tspan></text></g><g id="shape29" transform="translate(298.427000,1091.450000)"><path d="M478.8,55.5L478.8,.0L.0,.0L.0,55.5L478.8,55.5z" fill="none" stroke-width="2.666670083999634" stroke="#00c1de"/><text style="fill:#ffffff;font-family:Lato,PingFang SC,Mircrosoft YaHei,Arial;font-size:14.00pt" xml:space="preserve"><tspan y="23.0" style="font-family:Lato,PingFang SC,Mircrosoft YaHei,Arial" x="4.4">Interface</tspan></text></g><g id="shape30" transform="translate(534.824200,1100.330000)"><path d="M68.0,38.0L68.0,.0L.0,.0L.0,38.0L68.0,38.0z" fill="none" stroke-width="2" stroke="#ffffff"/><text style="fill:#ffffff;font-family:Lato,PingFang SC,Mircrosoft YaHei,Arial;font-size:12.00pt" xml:space="preserve"><tspan y="26.0" style="font-family:Lato,PingFang SC,Mircrosoft YaHei,Arial" x="17.5">WiFi</tspan></text></g><path id="shape31" d="M506.3,80.0L506.3,.0L.0,.0L.0,80.0L506.3,80.0z" fill="#333e48" fill-rule="nonzero" transform="translate(283.857000,736.701000)"/><g id="shape32" transform="translate(434.017000,757.701000)"><path d="M331.3,38.0L331.3,.0L.0,.0L.0,38.0L331.3,38.0z" fill="none" stroke-width="2" stroke="#ffffff"/><text style="fill:#ffffff;font-family:Lato,PingFang SC,Mircrosoft YaHei,Arial;font-size:12.00pt" xml:space="preserve"><tspan y="26.0" style="font-family:Lato,PingFang SC,Mircrosoft YaHei,Arial" x="67.2">Core (IPv4/IPv6 Dual-Stack)</tspan></text></g><g id="shape33" transform="translate(298.427000,749.201000)"><path d="M478.8,55.5L478.8,.0L.0,.0L.0,55.5L478.8,55.5z" fill="none" stroke-width="2.666670083999634" stroke="#00c1de"/><text style="fill:#ffffff;font-family:Lato,PingFang SC,Mircrosoft YaHei,Arial;font-size:14.00pt" xml:space="preserve"><tspan y="23.0" style="font-family:Lato,PingFang SC,Mircrosoft YaHei,Arial" x="4.4">Network</tspan></text></g><g id="shape34" transform="translate(282.999000,1341.200000)"><path d="M.0,.0L329.0,.0L329.0,19.5L.0,19.5L.0,.0z" fill="#ffffff" fill-rule="nonzero" fill-opacity="0.40"/><text style="fill:#191919;font-family:Arial,PingFang SC,Mircrosoft YaHei,Arial;font-size:9.00pt" xml:space="preserve"><tspan y="16.0" style="font-family:Arial,PingFang SC,Mircrosoft YaHei,Arial" x="4.0">*These components are not part of the Network component</tspan></text></g></g></svg>