<svg xmlns:xlink="http://www.w3.org/1999/xlink" viewBox="0 0 552 340" height="340" xmlns="http://www.w3.org/2000/svg" width="552"><defs/><g transform="translate(-211.43,-393.00)"><path id="shape1" d="M551.1,83.0L551.1,.0L.0,.0L.0,83.0L551.1,83.0z" fill="#7d868c" fill-rule="nonzero" transform="translate(212.000000,393.000000)"/><path id="shape2" d="M551.1,83.0L551.1,.0L.0,.0L.0,83.0L551.1,83.0z" fill="#333e48" fill-rule="nonzero" transform="translate(212.001000,491.000000)"/><g id="shape3" transform="translate(370.000500,512.250000)"><path d="M129.5,38.0L129.5,.0L.0,.0L.0,38.0L129.5,38.0z" fill="none" stroke-width="2" stroke="#ffffff"/><text style="fill:#ffffff;font-family:Lato,PingFang SC,Mircrosoft YaHei,Arial;font-size:12.00pt" xml:space="preserve"><tspan y="26.0" style="font-family:Lato,PingFang SC,Mircrosoft YaHei,Arial" x="24.9">File System</tspan></text></g><g id="shape4" transform="translate(651.518500,512.000000)"><path d="M84.7,38.0L84.7,.0L.0,.0L.0,38.0L84.7,38.0z" fill="none" stroke-width="2" stroke="#ffffff"/><text style="fill:#ffffff;font-family:Lato,PingFang SC,Mircrosoft YaHei,Arial;font-size:12.00pt" xml:space="preserve"><tspan y="26.0" style="font-family:Lato,PingFang SC,Mircrosoft YaHei,Arial" x="27.0">USB</tspan></text></g><g id="shape5" transform="translate(518.519000,512.000000)"><path d="M114.0,38.0L114.0,.0L.0,.0L.0,38.0L114.0,38.0z" fill="none" stroke-width="2" stroke="#ffffff"/><text style="fill:#ffffff;font-family:Lato,PingFang SC,Mircrosoft YaHei,Arial;font-size:12.00pt" xml:space="preserve"><tspan y="26.0" style="font-family:Lato,PingFang SC,Mircrosoft YaHei,Arial" x="26.2">Network</tspan></text></g><g id="shape6" transform="translate(226.000000,503.500000)"><path d="M522.0,55.5L522.0,.0L.0,.0L.0,55.5L522.0,55.5z" fill="none" stroke-width="2.666670083999634" stroke="#00c1de"/><text style="fill:#ffffff;font-family:Lato,PingFang SC,Mircrosoft YaHei,Arial;font-size:14.00pt" xml:space="preserve"><tspan y="23.0" style="font-family:Lato,PingFang SC,Mircrosoft YaHei,Arial" x="4.0">Middleware</tspan></text></g><path id="shape7" d="M551.1,143.0L551.1,.0L.0,.0L.0,143.0L551.1,143.0z" fill="#7d868c" fill-rule="nonzero" transform="translate(211.430000,590.000000)"/><g id="shape8" transform="translate(518.519000,611.000000)"><path d="M114.0,38.0L114.0,.0L.0,.0L.0,38.0L114.0,38.0z" fill="none" stroke-width="2" stroke="#ffffff"/><text style="fill:#ffffff;font-family:Lato,PingFang SC,Mircrosoft YaHei,Arial;font-size:12.00pt" xml:space="preserve"><tspan y="26.0" style="font-family:Lato,PingFang SC,Mircrosoft YaHei,Arial" x="5.7">CMSIS-RTOS2</tspan></text></g><g id="shape9" transform="translate(370.000500,669.000000)"><path d="M129.5,38.0L129.5,.0L.0,.0L.0,38.0L129.5,38.0z" fill="none" stroke-width="2" stroke="#ffffff"/><text style="fill:#ffffff;font-family:Lato,PingFang SC,Mircrosoft YaHei,Arial;font-size:12.00pt" xml:space="preserve"><tspan y="26.0" style="font-family:Lato,PingFang SC,Mircrosoft YaHei,Arial" x="6.3">CMSIS-Compiler</tspan></text></g><g id="shape10" transform="translate(651.518500,611.000000)"><path d="M84.7,38.0L84.7,.0L.0,.0L.0,38.0L84.7,38.0z" fill="none" stroke-width="2" stroke="#ffffff"/><text style="fill:#ffffff;font-family:Lato,PingFang SC,Mircrosoft YaHei,Arial;font-size:12.00pt" xml:space="preserve"><tspan y="26.0" style="font-family:Lato,PingFang SC,Mircrosoft YaHei,Arial" x="6.9">Mbed TLS</tspan></text></g><g id="shape11" transform="translate(225.430000,602.500000)"><path d="M522.0,115.5L522.0,.0L.0,.0L.0,115.5L522.0,115.5z" fill="none" stroke-width="2.666670083999634" stroke="#00c1de"/><text style="fill:#ffffff;font-family:Lato,PingFang SC,Mircrosoft YaHei,Arial;font-size:14.00pt" xml:space="preserve"><tspan y="23.0" style="font-family:Lato,PingFang SC,Mircrosoft YaHei,Arial" x="4.0">Uses</tspan></text></g><g id="shape12" transform="translate(370.000500,611.000000)"><path d="M129.5,38.0L129.5,.0L.0,.0L.0,38.0L129.5,38.0z" fill="none" stroke-width="2" stroke="#ffffff"/><text style="fill:#ffffff;font-family:Lato,PingFang SC,Mircrosoft YaHei,Arial;font-size:12.00pt" xml:space="preserve"><tspan y="26.0" style="font-family:Lato,PingFang SC,Mircrosoft YaHei,Arial" x="16.2">CMSIS-Driver</tspan></text></g><g id="shape13" transform="translate(518.519000,669.000000)"><path d="M114.0,38.0L114.0,.0L.0,.0L.0,38.0L114.0,38.0z" fill="none" stroke-width="2" stroke="#ffffff"/><text style="fill:#ffffff;font-family:Lato,PingFang SC,Mircrosoft YaHei,Arial;font-size:12.00pt" xml:space="preserve"><tspan y="26.0" style="font-family:Lato,PingFang SC,Mircrosoft YaHei,Arial" x="12.8">CMSIS-View</tspan></text></g><g id="shape14" transform="translate(651.519000,414.000000)"><path d="M84.7,38.0L84.7,.0L.0,.0L.0,38.0L84.7,38.0z" fill="#7d868c" fill-rule="nonzero" stroke-width="2" stroke="#ffffff"/><text style="fill:#ffffff;font-family:Lato,PingFang SC,Mircrosoft YaHei,Arial;font-size:12.00pt" xml:space="preserve"><tspan y="26.0" style="font-family:Lato,PingFang SC,Mircrosoft YaHei,Arial" x="27.6">SDS</tspan></text></g><g id="shape15" transform="translate(518.519000,414.000000)"><path d="M114.0,38.0L114.0,.0L.0,.0L.0,38.0L114.0,38.0z" fill="#7d868c" fill-rule="nonzero" stroke-width="2" stroke="#ffffff"/><text style="fill:#ffffff;font-family:Lato,PingFang SC,Mircrosoft YaHei,Arial;font-size:12.00pt" xml:space="preserve"><tspan y="26.0" style="font-family:Lato,PingFang SC,Mircrosoft YaHei,Arial" x="4.3">IoT Connectors</tspan></text></g><g id="shape16" transform="translate(225.999000,405.500000)"><path d="M522.0,55.5L522.0,.0L.0,.0L.0,55.5L522.0,55.5z" fill="none" stroke-width="2.666670083999634" stroke="#00c1de"/><text style="fill:#ffffff;font-family:Lato,PingFang SC,Mircrosoft YaHei,Arial;font-size:14.00pt" xml:space="preserve"><tspan y="23.0" style="font-family:Lato,PingFang SC,Mircrosoft YaHei,Arial" x="4.0">Supports</tspan></text></g><g id="shape17" transform="translate(370.000500,414.000000)"><path d="M129.5,38.0L129.5,.0L.0,.0L.0,38.0L129.5,38.0z" fill="#7d868c" fill-rule="nonzero" stroke-width="2" stroke="#ffffff"/><text style="fill:#ffffff;font-family:Lato,PingFang SC,Mircrosoft YaHei,Arial;font-size:12.00pt" xml:space="preserve"><tspan y="26.0" style="font-family:Lato,PingFang SC,Mircrosoft YaHei,Arial" x="7.1">User Application</tspan></text></g></g></svg>