<svg xmlns:xlink="http://www.w3.org/1999/xlink" viewBox="0 0 1057 295" height="295" xmlns="http://www.w3.org/2000/svg" width="1057"><defs/><g transform="translate(-39.00,-340.00)"><path id="shape1" d="M.0,.0L1056.7,.0L1056.7,295.0L.0,295.0L.0,.0z" fill="#ffffff" fill-rule="nonzero" transform="translate(39.260000,340.000000)"/><g id="shape2" transform="translate(174.760000,350.000000)"><path d="M.0,.0L908.5,.0L908.5,38.0L.0,38.0L.0,.0z" fill="#002b49" fill-rule="nonzero"/><text style="fill:#ffffff;font-family:Arial,PingFang SC,Mircrosoft YaHei,Arial;font-size:10.00pt" xml:space="preserve"><tspan y="24.5" style="font-family:Arial,PingFang SC,Mircrosoft YaHei,Arial" x="407.3">User Application</tspan></text></g><g id="shape3" transform="translate(174.760000,397.000000)"><path d="M.0,.0L76.0,.0L76.0,38.0L.0,38.0L.0,.0z" fill="#0091bd" fill-rule="nonzero"/><text style="fill:#ffffff;font-family:Arial,PingFang SC,Mircrosoft YaHei,Arial;font-size:9.00pt" xml:space="preserve"><tspan y="24.0" style="font-family:Arial,PingFang SC,Mircrosoft YaHei,Arial" x="17.0">Generic</tspan></text></g><g id="shape4" transform="translate(259.760000,397.000000)"><path d="M.0,.0L76.0,.0L76.0,38.0L.0,38.0L.0,.0z" fill="#0091bd" fill-rule="nonzero"/><text style="fill:#ffffff;font-family:Arial,PingFang SC,Mircrosoft YaHei,Arial;font-size:9.00pt" xml:space="preserve"><tspan y="17.0" style="font-family:Arial,PingFang SC,Mircrosoft YaHei,Arial" x="25.7">USB</tspan><tspan y="31.0" style="font-family:Arial,PingFang SC,Mircrosoft YaHei,Arial" x="19.7">Device</tspan></text></g><g id="shape5" transform="translate(344.760000,397.000000)"><path d="M.0,.0L76.0,.0L76.0,38.0L.0,38.0L.0,.0z" fill="#0091bd" fill-rule="nonzero"/><text style="fill:#ffffff;font-family:Arial,PingFang SC,Mircrosoft YaHei,Arial;font-size:9.00pt" xml:space="preserve"><tspan y="17.0" style="font-family:Arial,PingFang SC,Mircrosoft YaHei,Arial" x="25.7">USB</tspan><tspan y="31.0" style="font-family:Arial,PingFang SC,Mircrosoft YaHei,Arial" x="25.7">Host</tspan></text></g><g id="shape6" transform="translate(429.760000,444.000000)"><path d="M.0,.0L76.0,.0L76.0,38.0L.0,38.0L.0,.0z" fill="#ffffff" fill-rule="nonzero" stroke-width="1" stroke="#323232"/><text style="fill:#191919;font-family:Arial,PingFang SC,Mircrosoft YaHei,Arial;font-size:9.00pt" xml:space="preserve"><tspan y="24.0" style="font-family:Arial,PingFang SC,Mircrosoft YaHei,Arial" x="7.0">ETH_PHY0</tspan></text></g><g id="shape7" transform="translate(512.260000,444.000000)"><path d="M.0,.0L76.0,.0L76.0,38.0L.0,38.0L.0,.0z" fill="#ffffff" fill-rule="nonzero" stroke-width="1" stroke="#323232"/><text style="fill:#191919;font-family:Arial,PingFang SC,Mircrosoft YaHei,Arial;font-size:9.00pt" xml:space="preserve"><tspan y="24.0" style="font-family:Arial,PingFang SC,Mircrosoft YaHei,Arial" x="6.0">ETH_MAC0</tspan></text></g><g id="shape8" transform="translate(594.760000,444.000000)"><path d="M.0,.0L76.0,.0L76.0,38.0L.0,38.0L.0,.0z" fill="#ffffff" fill-rule="nonzero" stroke-width="1" stroke="#323232"/><text style="fill:#191919;font-family:Arial,PingFang SC,Mircrosoft YaHei,Arial;font-size:9.00pt" xml:space="preserve"><tspan y="24.0" style="font-family:Arial,PingFang SC,Mircrosoft YaHei,Arial" x="14.5">USART0</tspan></text></g><g id="shape9" transform="translate(429.760000,397.000000)"><path d="M.0,.0L323.5,.0L323.5,38.0L.0,38.0L.0,.0z" fill="#0091bd" fill-rule="nonzero"/><text style="fill:#ffffff;font-family:Arial,PingFang SC,Mircrosoft YaHei,Arial;font-size:9.00pt" xml:space="preserve"><tspan y="24.0" style="font-family:Arial,PingFang SC,Mircrosoft YaHei,Arial" x="131.8">Networking</tspan></text></g><g id="shape10" transform="translate(677.260000,444.000000)"><path d="M.0,.0L76.0,.0L76.0,38.0L.0,38.0L.0,.0z" fill="#ffffff" fill-rule="nonzero" stroke-width="1" stroke="#323232"/><text style="fill:#191919;font-family:Arial,PingFang SC,Mircrosoft YaHei,Arial;font-size:9.00pt" xml:space="preserve"><tspan y="24.0" style="font-family:Arial,PingFang SC,Mircrosoft YaHei,Arial" x="22.0">WIFI0</tspan></text></g><g id="shape11" transform="translate(759.760000,444.000000)"><path d="M.0,.0L76.0,.0L76.0,38.0L.0,38.0L.0,.0z" fill="#ffffff" fill-rule="nonzero" stroke-width="1" stroke="#323232"/><text style="fill:#191919;font-family:Arial,PingFang SC,Mircrosoft YaHei,Arial;font-size:9.00pt" xml:space="preserve"><tspan y="24.0" style="font-family:Arial,PingFang SC,Mircrosoft YaHei,Arial" x="25.0">SPI0</tspan></text></g><g id="shape12" transform="translate(842.260000,444.000000)"><path d="M.0,.0L76.0,.0L76.0,38.0L.0,38.0L.0,.0z" fill="#ffffff" fill-rule="nonzero" stroke-width="1" stroke="#323232"/><text style="fill:#191919;font-family:Arial,PingFang SC,Mircrosoft YaHei,Arial;font-size:9.00pt" xml:space="preserve"><tspan y="24.0" style="font-family:Arial,PingFang SC,Mircrosoft YaHei,Arial" x="23.7">MCI0</tspan></text></g><g id="shape13" transform="translate(924.760000,444.000000)"><path d="M.0,.0L76.0,.0L76.0,38.0L.0,38.0L.0,.0z" fill="#ffffff" fill-rule="nonzero" stroke-width="1" stroke="#323232"/><text style="fill:#191919;font-family:Arial,PingFang SC,Mircrosoft YaHei,Arial;font-size:9.00pt" xml:space="preserve"><tspan y="24.0" style="font-family:Arial,PingFang SC,Mircrosoft YaHei,Arial" x="17.7">NAND0</tspan></text></g><g id="shape14" transform="translate(1007.260000,444.000000)"><path d="M.0,.0L76.0,.0L76.0,38.0L.0,38.0L.0,.0z" fill="#ffffff" fill-rule="nonzero" stroke-width="1" stroke="#323232"/><text style="fill:#191919;font-family:Arial,PingFang SC,Mircrosoft YaHei,Arial;font-size:9.00pt" xml:space="preserve"><tspan y="24.0" style="font-family:Arial,PingFang SC,Mircrosoft YaHei,Arial" x="22.0">CAN0</tspan></text></g><g id="shape15" transform="translate(759.760000,397.000000)"><path d="M.0,.0L241.0,.0L241.0,38.0L.0,38.0L.0,.0z" fill="#0091bd" fill-rule="nonzero"/><text style="fill:#ffffff;font-family:Arial,PingFang SC,Mircrosoft YaHei,Arial;font-size:9.00pt" xml:space="preserve"><tspan y="24.0" style="font-family:Arial,PingFang SC,Mircrosoft YaHei,Arial" x="89.2">File System</tspan></text></g><g id="shape16" transform="translate(1007.260000,397.000000)"><path d="M.0,.0L76.0,.0L76.0,38.0L.0,38.0L.0,.0z" fill="#0091bd" fill-rule="nonzero"/><text style="fill:#ffffff;font-family:Arial,PingFang SC,Mircrosoft YaHei,Arial;font-size:9.00pt" xml:space="preserve"><tspan y="24.0" style="font-family:Arial,PingFang SC,Mircrosoft YaHei,Arial" x="25.3">CAN</tspan></text></g><g id="shape17" transform="translate(174.760000,444.000000)"><path d="M.0,.0L76.0,.0L76.0,38.0L.0,38.0L.0,.0z" fill="#ffffff" fill-rule="nonzero" stroke-width="1" stroke="#323232"/><text style="fill:#191919;font-family:Arial,PingFang SC,Mircrosoft YaHei,Arial;font-size:9.00pt" xml:space="preserve"><tspan y="24.0" style="font-family:Arial,PingFang SC,Mircrosoft YaHei,Arial" x="23.0">GPIO</tspan></text></g><g id="shape18" transform="translate(259.760000,444.000000)"><path d="M.0,.0L76.0,.0L76.0,38.0L.0,38.0L.0,.0z" fill="#ffffff" fill-rule="nonzero" stroke-width="1" stroke="#323232"/><text style="fill:#191919;font-family:Arial,PingFang SC,Mircrosoft YaHei,Arial;font-size:9.00pt" xml:space="preserve"><tspan y="24.0" style="font-family:Arial,PingFang SC,Mircrosoft YaHei,Arial" x="18.0">USBD0</tspan></text></g><g id="shape19" transform="translate(344.760000,444.000000)"><path d="M.0,.0L76.0,.0L76.0,38.0L.0,38.0L.0,.0z" fill="#ffffff" fill-rule="nonzero" stroke-width="1" stroke="#323232"/><text style="fill:#191919;font-family:Arial,PingFang SC,Mircrosoft YaHei,Arial;font-size:9.00pt" xml:space="preserve"><tspan y="24.0" style="font-family:Arial,PingFang SC,Mircrosoft YaHei,Arial" x="18.0">USBH0</tspan></text></g><g id="shape20" transform="translate(174.760000,491.000000)"><path d="M.0,.0L76.0,.0L76.0,38.0L.0,38.0L.0,.0z" fill="#00c1de" fill-rule="nonzero"/><text style="fill:#ffffff;font-family:Arial,PingFang SC,Mircrosoft YaHei,Arial;font-size:9.00pt" xml:space="preserve"><tspan y="24.0" style="font-family:Arial,PingFang SC,Mircrosoft YaHei,Arial" x="23.0">GPIO</tspan></text></g><g id="shape21" transform="translate(259.760000,491.000000)"><path d="M.0,.0L76.0,.0L76.0,38.0L.0,38.0L.0,.0z" fill="#00c1de" fill-rule="nonzero"/><text style="fill:#ffffff;font-family:Arial,PingFang SC,Mircrosoft YaHei,Arial;font-size:9.00pt" xml:space="preserve"><tspan y="17.0" style="font-family:Arial,PingFang SC,Mircrosoft YaHei,Arial" x="25.7">USB</tspan><tspan y="31.0" style="font-family:Arial,PingFang SC,Mircrosoft YaHei,Arial" x="19.7">Device</tspan></text></g><g id="shape22" transform="translate(344.760000,491.000000)"><path d="M.0,.0L76.0,.0L76.0,38.0L.0,38.0L.0,.0z" fill="#00c1de" fill-rule="nonzero"/><text style="fill:#ffffff;font-family:Arial,PingFang SC,Mircrosoft YaHei,Arial;font-size:9.00pt" xml:space="preserve"><tspan y="17.0" style="font-family:Arial,PingFang SC,Mircrosoft YaHei,Arial" x="25.7">USB</tspan><tspan y="31.0" style="font-family:Arial,PingFang SC,Mircrosoft YaHei,Arial" x="25.7">Host</tspan></text></g><g id="shape23" transform="translate(429.760000,491.000000)"><path d="M.0,.0L76.0,.0L76.0,38.0L.0,38.0L.0,.0z" fill="#00c1de" fill-rule="nonzero"/><text style="fill:#ffffff;font-family:Arial,PingFang SC,Mircrosoft YaHei,Arial;font-size:9.00pt" xml:space="preserve"><tspan y="17.0" style="font-family:Arial,PingFang SC,Mircrosoft YaHei,Arial" x="15.3">Ethernet</tspan><tspan y="31.0" style="font-family:Arial,PingFang SC,Mircrosoft YaHei,Arial" x="25.7">PHY</tspan></text></g><g id="shape24" transform="translate(512.260000,491.000000)"><path d="M.0,.0L76.0,.0L76.0,38.0L.0,38.0L.0,.0z" fill="#00c1de" fill-rule="nonzero"/><text style="fill:#ffffff;font-family:Arial,PingFang SC,Mircrosoft YaHei,Arial;font-size:9.00pt" xml:space="preserve"><tspan y="17.0" style="font-family:Arial,PingFang SC,Mircrosoft YaHei,Arial" x="15.3">Ethernet</tspan><tspan y="31.0" style="font-family:Arial,PingFang SC,Mircrosoft YaHei,Arial" x="24.7">MAC</tspan></text></g><g id="shape25" transform="translate(594.760000,491.000000)"><path d="M.0,.0L76.0,.0L76.0,38.0L.0,38.0L.0,.0z" fill="#00c1de" fill-rule="nonzero"/><text style="fill:#ffffff;font-family:Arial,PingFang SC,Mircrosoft YaHei,Arial;font-size:9.00pt" xml:space="preserve"><tspan y="24.0" style="font-family:Arial,PingFang SC,Mircrosoft YaHei,Arial" x="17.8">USART</tspan></text></g><g id="shape26" transform="translate(677.260000,491.000000)"><path d="M.0,.0L76.0,.0L76.0,38.0L.0,38.0L.0,.0z" fill="#00c1de" fill-rule="nonzero"/><text style="fill:#ffffff;font-family:Arial,PingFang SC,Mircrosoft YaHei,Arial;font-size:9.00pt" xml:space="preserve"><tspan y="24.0" style="font-family:Arial,PingFang SC,Mircrosoft YaHei,Arial" x="25.3">WIFI</tspan></text></g><g id="shape27" transform="translate(759.760000,491.000000)"><path d="M.0,.0L76.0,.0L76.0,38.0L.0,38.0L.0,.0z" fill="#00c1de" fill-rule="nonzero"/><text style="fill:#ffffff;font-family:Arial,PingFang SC,Mircrosoft YaHei,Arial;font-size:9.00pt" xml:space="preserve"><tspan y="24.0" style="font-family:Arial,PingFang SC,Mircrosoft YaHei,Arial" x="23.3">Flash</tspan></text></g><g id="shape28" transform="translate(842.260000,491.000000)"><path d="M.0,.0L76.0,.0L76.0,38.0L.0,38.0L.0,.0z" fill="#00c1de" fill-rule="nonzero"/><text style="fill:#ffffff;font-family:Arial,PingFang SC,Mircrosoft YaHei,Arial;font-size:9.00pt" xml:space="preserve"><tspan y="24.0" style="font-family:Arial,PingFang SC,Mircrosoft YaHei,Arial" x="27.0">MCI</tspan></text></g><g id="shape29" transform="translate(924.760000,491.000000)"><path d="M.0,.0L76.0,.0L76.0,38.0L.0,38.0L.0,.0z" fill="#00c1de" fill-rule="nonzero"/><text style="fill:#ffffff;font-family:Arial,PingFang SC,Mircrosoft YaHei,Arial;font-size:9.00pt" xml:space="preserve"><tspan y="24.0" style="font-family:Arial,PingFang SC,Mircrosoft YaHei,Arial" x="21.0">NAND</tspan></text></g><g id="shape30" transform="translate(1007.260000,491.000000)"><path d="M.0,.0L76.0,.0L76.0,38.0L.0,38.0L.0,.0z" fill="#00c1de" fill-rule="nonzero"/><text style="fill:#ffffff;font-family:Arial,PingFang SC,Mircrosoft YaHei,Arial;font-size:9.00pt" xml:space="preserve"><tspan y="24.0" style="font-family:Arial,PingFang SC,Mircrosoft YaHei,Arial" x="25.3">CAN</tspan></text></g><g id="shape31" transform="translate(174.760000,539.000000)"><path d="M.0,.0L76.0,.0L76.0,38.0L.0,38.0L.0,.0z" fill="#e5eceb" fill-rule="nonzero"/><text style="fill:#191919;font-family:Arial,PingFang SC,Mircrosoft YaHei,Arial;font-size:9.00pt" xml:space="preserve"><tspan y="24.0" style="font-family:Arial,PingFang SC,Mircrosoft YaHei,Arial" x="23.0">GPIO</tspan></text></g><g id="shape32" transform="translate(259.775700,539.000000)"><path d="M.0,.0L76.0,.0L76.0,38.0L.0,38.0L.0,.0z" fill="#e5eceb" fill-rule="nonzero"/><text style="fill:#191919;font-family:Arial,PingFang SC,Mircrosoft YaHei,Arial;font-size:9.00pt" xml:space="preserve"><tspan y="17.0" style="font-family:Arial,PingFang SC,Mircrosoft YaHei,Arial" x="25.7">USB</tspan><tspan y="31.0" style="font-family:Arial,PingFang SC,Mircrosoft YaHei,Arial" x="12.0">Controller</tspan></text></g><g id="shape33" transform="translate(344.760000,539.000000)"><path d="M.0,.0L76.0,.0L76.0,38.0L.0,38.0L.0,.0z" fill="#e5eceb" fill-rule="nonzero"/><text style="fill:#191919;font-family:Arial,PingFang SC,Mircrosoft YaHei,Arial;font-size:9.00pt" xml:space="preserve"><tspan y="17.0" style="font-family:Arial,PingFang SC,Mircrosoft YaHei,Arial" x="25.7">USB</tspan><tspan y="31.0" style="font-family:Arial,PingFang SC,Mircrosoft YaHei,Arial" x="12.0">Controller</tspan></text></g><g id="shape34" transform="translate(594.760000,539.000000)"><path d="M.0,.0L76.0,.0L76.0,38.0L.0,38.0L.0,.0z" fill="#e5eceb" fill-rule="nonzero"/><text style="fill:#191919;font-family:Arial,PingFang SC,Mircrosoft YaHei,Arial;font-size:9.00pt" xml:space="preserve"><tspan y="24.0" style="font-family:Arial,PingFang SC,Mircrosoft YaHei,Arial" x="17.8">USART</tspan></text></g><g id="shape35" transform="translate(759.760000,539.000000)"><path d="M.0,.0L76.0,.0L76.0,38.0L.0,38.0L.0,.0z" fill="#e5eceb" fill-rule="nonzero"/><text style="fill:#191919;font-family:Arial,PingFang SC,Mircrosoft YaHei,Arial;font-size:9.00pt" xml:space="preserve"><tspan y="17.0" style="font-family:Arial,PingFang SC,Mircrosoft YaHei,Arial" x="28.3">SPI</tspan><tspan y="31.0" style="font-family:Arial,PingFang SC,Mircrosoft YaHei,Arial" x="12.0">Controller</tspan></text></g><g id="shape36" transform="translate(842.260000,539.000000)"><path d="M.0,.0L76.0,.0L76.0,38.0L.0,38.0L.0,.0z" fill="#e5eceb" fill-rule="nonzero"/><text style="fill:#191919;font-family:Arial,PingFang SC,Mircrosoft YaHei,Arial;font-size:9.00pt" xml:space="preserve"><tspan y="24.0" style="font-family:Arial,PingFang SC,Mircrosoft YaHei,Arial" x="23.3">SDIO</tspan></text></g><g id="shape37" transform="translate(924.760000,539.000000)"><path d="M.0,.0L76.0,.0L76.0,38.0L.0,38.0L.0,.0z" fill="#e5eceb" fill-rule="nonzero"/><text style="fill:#191919;font-family:Arial,PingFang SC,Mircrosoft YaHei,Arial;font-size:9.00pt" xml:space="preserve"><tspan y="17.0" style="font-family:Arial,PingFang SC,Mircrosoft YaHei,Arial" x="16.3">Memory</tspan><tspan y="31.0" style="font-family:Arial,PingFang SC,Mircrosoft YaHei,Arial" x="12.0">Controller</tspan></text></g><g id="shape38" transform="translate(1007.260000,539.000000)"><path d="M.0,.0L76.0,.0L76.0,38.0L.0,38.0L.0,.0z" fill="#e5eceb" fill-rule="nonzero"/><text style="fill:#191919;font-family:Arial,PingFang SC,Mircrosoft YaHei,Arial;font-size:9.00pt" xml:space="preserve"><tspan y="17.0" style="font-family:Arial,PingFang SC,Mircrosoft YaHei,Arial" x="25.3">CAN</tspan><tspan y="31.0" style="font-family:Arial,PingFang SC,Mircrosoft YaHei,Arial" x="12.0">Controller</tspan></text></g><g id="group39" transform="translate(201.421400,587.000180)"><path id="shape40" d="M.0,.0L7.6,.0L7.6,18.9L.0,18.9L.0,.0z" fill="#ffffff" fill-rule="nonzero" stroke-width="1" stroke="#323232"/><path id="shape41" d="M.0,.0L7.6,.0L7.6,18.9L.0,18.9L.0,.0z" fill="#ffffff" fill-rule="nonzero" stroke-width="1" stroke="#323232" transform="translate(7.559070,0.000020)"/><path id="shape42" d="M.0,.0L7.6,.0L7.6,18.9L.0,18.9L.0,.0z" fill="#ffffff" fill-rule="nonzero" stroke-width="1" stroke="#323232" transform="translate(15.118070,0.000060)"/></g><g id="group43" transform="translate(286.421400,587.000180)"><path id="shape44" d="M.0,.0L7.6,.0L7.6,18.9L.0,18.9L.0,.0z" fill="#ffffff" fill-rule="nonzero" stroke-width="1" stroke="#323232"/><path id="shape45" d="M.0,.0L7.6,.0L7.6,18.9L.0,18.9L.0,.0z" fill="#ffffff" fill-rule="nonzero" stroke-width="1" stroke="#323232" transform="translate(7.559070,0.000020)"/><path id="shape46" d="M.0,.0L7.6,.0L7.6,18.9L.0,18.9L.0,.0z" fill="#ffffff" fill-rule="nonzero" stroke-width="1" stroke="#323232" transform="translate(15.118070,0.000060)"/></g><g id="group47" transform="translate(371.421400,587.000180)"><path id="shape48" d="M.0,.0L7.6,.0L7.6,18.9L.0,18.9L.0,.0z" fill="#ffffff" fill-rule="nonzero" stroke-width="1" stroke="#323232"/><path id="shape49" d="M.0,.0L7.6,.0L7.6,18.9L.0,18.9L.0,.0z" fill="#ffffff" fill-rule="nonzero" stroke-width="1" stroke="#323232" transform="translate(7.559070,0.000020)"/><path id="shape50" d="M.0,.0L7.6,.0L7.6,18.9L.0,18.9L.0,.0z" fill="#ffffff" fill-rule="nonzero" stroke-width="1" stroke="#323232" transform="translate(15.118070,0.000060)"/></g><g id="group51" transform="translate(456.421400,587.000180)"><path id="shape52" d="M.0,.0L7.6,.0L7.6,18.9L.0,18.9L.0,.0z" fill="#ffffff" fill-rule="nonzero" stroke-width="1" stroke="#323232"/><path id="shape53" d="M.0,.0L7.6,.0L7.6,18.9L.0,18.9L.0,.0z" fill="#ffffff" fill-rule="nonzero" stroke-width="1" stroke="#323232" transform="translate(7.559070,0.000020)"/><path id="shape54" d="M.0,.0L7.6,.0L7.6,18.9L.0,18.9L.0,.0z" fill="#ffffff" fill-rule="nonzero" stroke-width="1" stroke="#323232" transform="translate(15.118070,0.000060)"/></g><g id="group55" transform="translate(621.421400,587.000180)"><path id="shape56" d="M.0,.0L7.6,.0L7.6,18.9L.0,18.9L.0,.0z" fill="#ffffff" fill-rule="nonzero" stroke-width="1" stroke="#323232"/><path id="shape57" d="M.0,.0L7.6,.0L7.6,18.9L.0,18.9L.0,.0z" fill="#ffffff" fill-rule="nonzero" stroke-width="1" stroke="#323232" transform="translate(7.559070,0.000020)"/><path id="shape58" d="M.0,.0L7.6,.0L7.6,18.9L.0,18.9L.0,.0z" fill="#ffffff" fill-rule="nonzero" stroke-width="1" stroke="#323232" transform="translate(15.118070,0.000060)"/></g><g id="group59" transform="translate(786.421400,587.000180)"><path id="shape60" d="M.0,.0L7.6,.0L7.6,18.9L.0,18.9L.0,.0z" fill="#ffffff" fill-rule="nonzero" stroke-width="1" stroke="#323232"/><path id="shape61" d="M.0,.0L7.6,.0L7.6,18.9L.0,18.9L.0,.0z" fill="#ffffff" fill-rule="nonzero" stroke-width="1" stroke="#323232" transform="translate(7.559070,0.000020)"/><path id="shape62" d="M.0,.0L7.6,.0L7.6,18.9L.0,18.9L.0,.0z" fill="#ffffff" fill-rule="nonzero" stroke-width="1" stroke="#323232" transform="translate(15.118070,0.000060)"/></g><g id="group63" transform="translate(868.921400,587.000180)"><path id="shape64" d="M.0,.0L7.6,.0L7.6,18.9L.0,18.9L.0,.0z" fill="#ffffff" fill-rule="nonzero" stroke-width="1" stroke="#323232"/><path id="shape65" d="M.0,.0L7.6,.0L7.6,18.9L.0,18.9L.0,.0z" fill="#ffffff" fill-rule="nonzero" stroke-width="1" stroke="#323232" transform="translate(7.559070,0.000020)"/><path id="shape66" d="M.0,.0L7.6,.0L7.6,18.9L.0,18.9L.0,.0z" fill="#ffffff" fill-rule="nonzero" stroke-width="1" stroke="#323232" transform="translate(15.118070,0.000060)"/></g><g id="group67" transform="translate(951.421400,587.000180)"><path id="shape68" d="M.0,.0L7.6,.0L7.6,18.9L.0,18.9L.0,.0z" fill="#ffffff" fill-rule="nonzero" stroke-width="1" stroke="#323232"/><path id="shape69" d="M.0,.0L7.6,.0L7.6,18.9L.0,18.9L.0,.0z" fill="#ffffff" fill-rule="nonzero" stroke-width="1" stroke="#323232" transform="translate(7.559070,0.000020)"/><path id="shape70" d="M.0,.0L7.6,.0L7.6,18.9L.0,18.9L.0,.0z" fill="#ffffff" fill-rule="nonzero" stroke-width="1" stroke="#323232" transform="translate(15.118070,0.000060)"/></g><g id="group71" transform="translate(1033.921400,587.000180)"><path id="shape72" d="M.0,.0L7.6,.0L7.6,18.9L.0,18.9L.0,.0z" fill="#ffffff" fill-rule="nonzero" stroke-width="1" stroke="#323232"/><path id="shape73" d="M.0,.0L7.6,.0L7.6,18.9L.0,18.9L.0,.0z" fill="#ffffff" fill-rule="nonzero" stroke-width="1" stroke="#323232" transform="translate(7.559070,0.000020)"/><path id="shape74" d="M.0,.0L7.6,.0L7.6,18.9L.0,18.9L.0,.0z" fill="#ffffff" fill-rule="nonzero" stroke-width="1" stroke="#323232" transform="translate(15.118070,0.000060)"/></g><g id="shape75" transform="translate(429.760000,597.000000)"><text style="fill:#191919;font-family:Arial,PingFang SC,Mircrosoft YaHei,Arial;font-size:9.00pt" xml:space="preserve"><tspan y="24.0" style="font-family:Arial,PingFang SC,Mircrosoft YaHei,Arial" x="15.3">Ethernet</tspan></text></g><g id="shape76" transform="translate(594.760000,597.000000)"><text style="fill:#191919;font-family:Arial,PingFang SC,Mircrosoft YaHei,Arial;font-size:9.00pt" xml:space="preserve"><tspan y="24.0" style="font-family:Arial,PingFang SC,Mircrosoft YaHei,Arial" x="13.7">RX0/TX0</tspan></text></g><g id="shape77" transform="translate(759.760000,597.000000)"><text style="fill:#191919;font-family:Arial,PingFang SC,Mircrosoft YaHei,Arial;font-size:9.00pt" xml:space="preserve"><tspan y="24.0" style="font-family:Arial,PingFang SC,Mircrosoft YaHei,Arial" x="25.0">SPI0</tspan></text></g><g id="shape78" transform="translate(842.260000,597.000000)"><text style="fill:#191919;font-family:Arial,PingFang SC,Mircrosoft YaHei,Arial;font-size:9.00pt" xml:space="preserve"><tspan y="24.0" style="font-family:Arial,PingFang SC,Mircrosoft YaHei,Arial" x="20.0">SDIO0</tspan></text></g><g id="shape79" transform="translate(924.760000,597.000000)"><text style="fill:#191919;font-family:Arial,PingFang SC,Mircrosoft YaHei,Arial;font-size:9.00pt" xml:space="preserve"><tspan y="24.0" style="font-family:Arial,PingFang SC,Mircrosoft YaHei,Arial" x="30.0">I/O</tspan></text></g><g id="shape80" transform="translate(1007.260000,597.000000)"><text style="fill:#191919;font-family:Arial,PingFang SC,Mircrosoft YaHei,Arial;font-size:9.00pt" xml:space="preserve"><tspan y="24.0" style="font-family:Arial,PingFang SC,Mircrosoft YaHei,Arial" x="11.7">RXC/TXC</tspan></text></g><g id="shape81" transform="translate(174.760000,597.000000)"><text style="fill:#191919;font-family:Arial,PingFang SC,Mircrosoft YaHei,Arial;font-size:9.00pt" xml:space="preserve"><tspan y="24.0" style="font-family:Arial,PingFang SC,Mircrosoft YaHei,Arial" x="23.0">GPIO</tspan></text></g><g id="shape82" transform="translate(259.760000,597.000000)"><text style="fill:#191919;font-family:Arial,PingFang SC,Mircrosoft YaHei,Arial;font-size:9.00pt" xml:space="preserve"><tspan y="24.0" style="font-family:Arial,PingFang SC,Mircrosoft YaHei,Arial" x="18.0">USBD0</tspan></text></g><g id="shape83" transform="translate(344.760000,597.000000)"><text style="fill:#191919;font-family:Arial,PingFang SC,Mircrosoft YaHei,Arial;font-size:9.00pt" xml:space="preserve"><tspan y="24.0" style="font-family:Arial,PingFang SC,Mircrosoft YaHei,Arial" x="18.0">USBH0</tspan></text></g><g id="shape84" transform="translate(39.259800,350.000000)"><text style="fill:#191919;font-family:Arial,PingFang SC,Mircrosoft YaHei,Arial;font-size:10.00pt" xml:space="preserve"><tspan y="24.5" style="font-family:Arial,PingFang SC,Mircrosoft YaHei,Arial" x="53.5">Application</tspan></text></g><g id="shape85" transform="translate(39.259800,397.000000)"><text style="fill:#191919;font-family:Arial,PingFang SC,Mircrosoft YaHei,Arial;font-size:10.00pt" xml:space="preserve"><tspan y="24.5" style="font-family:Arial,PingFang SC,Mircrosoft YaHei,Arial" x="50.6">Middleware</tspan></text></g><g id="shape86" transform="translate(39.259800,444.000000)"><text style="fill:#191919;font-family:Arial,PingFang SC,Mircrosoft YaHei,Arial;font-size:10.00pt" xml:space="preserve"><tspan y="24.5" style="font-family:Arial,PingFang SC,Mircrosoft YaHei,Arial" x="31.1">Control Structs</tspan></text></g><g id="shape87" transform="translate(39.259800,491.000000)"><text style="fill:#191919;font-family:Arial,PingFang SC,Mircrosoft YaHei,Arial;font-size:10.00pt" xml:space="preserve"><tspan y="24.5" style="font-family:Arial,PingFang SC,Mircrosoft YaHei,Arial" x="36.9">CMSIS-Driver</tspan></text></g><g id="shape88" transform="translate(39.259800,539.000000)"><text style="fill:#191919;font-family:Arial,PingFang SC,Mircrosoft YaHei,Arial;font-size:10.00pt" xml:space="preserve"><tspan y="24.5" style="font-family:Arial,PingFang SC,Mircrosoft YaHei,Arial" x="14.5">Device Peripheral</tspan></text></g><g id="shape89" transform="translate(39.259800,587.000000)"><text style="fill:#191919;font-family:Arial,PingFang SC,Mircrosoft YaHei,Arial;font-size:10.00pt" xml:space="preserve"><tspan y="24.5" style="font-family:Arial,PingFang SC,Mircrosoft YaHei,Arial" x="48.5">Device Pins</tspan></text></g><path id="shape90" d="M.0,.0L11.0,.0" fill="none" stroke-width="1" stroke="#191919" transform="translate(503.000000,559.000000)"/><g id="shape91" transform="translate(429.760000,539.000000)"><path d="M.0,.0L76.0,.0L76.0,38.0L.0,38.0L.0,.0z" fill="#e5eceb" fill-rule="nonzero"/><text style="fill:#191919;font-family:Arial,PingFang SC,Mircrosoft YaHei,Arial;font-size:9.00pt" xml:space="preserve"><tspan y="17.0" style="font-family:Arial,PingFang SC,Mircrosoft YaHei,Arial" x="15.3">Ethernet</tspan><tspan y="31.0" style="font-family:Arial,PingFang SC,Mircrosoft YaHei,Arial" x="25.7">PHY</tspan></text></g><g id="shape92" transform="translate(512.260000,539.000000)"><path d="M.0,.0L76.0,.0L76.0,38.0L.0,38.0L.0,.0z" fill="#e5eceb" fill-rule="nonzero"/><text style="fill:#191919;font-family:Arial,PingFang SC,Mircrosoft YaHei,Arial;font-size:9.00pt" xml:space="preserve"><tspan y="17.0" style="font-family:Arial,PingFang SC,Mircrosoft YaHei,Arial" x="15.3">Ethernet</tspan><tspan y="31.0" style="font-family:Arial,PingFang SC,Mircrosoft YaHei,Arial" x="24.7">MAC</tspan></text></g></g></svg>