<svg xmlns="http://www.w3.org/2000/svg" height="605" xmlns:xlink="http://www.w3.org/1999/xlink" viewBox="0 0 552 605" width="552"><defs/><g transform="translate(-264.29,-45.00)"><path fill-rule="nonzero" transform="translate(264.860000,302.000000)" fill="#333e48" d="M551.1,227.0L551.1,.0L.0,.0L.0,227.0L551.1,227.0z" id="shape1"/><g transform="translate(414.397200,320.543300)" id="shape2"><path stroke-width="2" stroke="#ffffff" fill="none" d="M170.0,52.9L170.0,.0L.0,.0L.0,52.9L170.0,52.9z"/><text xml:space="preserve" style="fill:#ffffff;font-family:Lato,PingFang SC,Mircrosoft YaHei,Arial;font-size:9.00pt"><tspan x="67.9" y="26.0" style="font-family:Lato,PingFang SC,Mircrosoft YaHei,Arial;font-size:12.00pt">MSC</tspan><tspan x="34.7" y="42.0" style="font-family:Lato,PingFang SC,Mircrosoft YaHei,Arial">Mass Storage Class</tspan></text></g><g transform="translate(603.279200,320.543300)" id="shape3"><path stroke-width="2" stroke="#ffffff" fill="none" d="M186.4,52.9L186.4,.0L.0,.0L.0,52.9L186.4,52.9z"/><text xml:space="preserve" style="fill:#ffffff;font-family:Lato,PingFang SC,Mircrosoft YaHei,Arial;font-size:9.00pt"><tspan x="76.4" y="26.0" style="font-family:Lato,PingFang SC,Mircrosoft YaHei,Arial;font-size:12.00pt">CDC</tspan><tspan x="14.3" y="42.0" style="font-family:Lato,PingFang SC,Mircrosoft YaHei,Arial">Communications Device Class</tspan></text></g><g transform="translate(279.429000,313.000000)" id="shape4"><path stroke-width="2.666670083999634" stroke="#00c1de" fill="none" d="M522.0,201.0L522.0,.0L.0,.0L.0,201.0L522.0,201.0z"/><text xml:space="preserve" style="fill:#ffffff;font-family:Lato,PingFang SC,Mircrosoft YaHei,Arial;font-size:14.00pt"><tspan x="4.0" y="23.0" style="font-family:Lato,PingFang SC,Mircrosoft YaHei,Arial">USB Device</tspan></text></g><path fill-rule="nonzero" transform="translate(264.860000,540.000000)" fill="#7d868c" d="M551.7,80.0L551.7,.0L.0,.0L.0,80.0L551.7,80.0z" id="shape5"/><g transform="translate(414.399200,561.000000)" id="shape6"><path stroke-width="2" stroke="#ffffff" fill="none" d="M170.0,38.0L170.0,.0L.0,.0L.0,38.0L170.0,38.0z"/><text xml:space="preserve" style="fill:#ffffff;font-family:Lato,PingFang SC,Mircrosoft YaHei,Arial;font-size:12.00pt"><tspan x="50.7" y="26.0" style="font-family:Lato,PingFang SC,Mircrosoft YaHei,Arial">USB Host</tspan></text></g><g transform="translate(603.281200,561.000000)" id="shape7"><path stroke-width="2" stroke="#ffffff" fill="none" d="M186.4,38.0L186.4,.0L.0,.0L.0,38.0L186.4,38.0z"/><text xml:space="preserve" style="fill:#ffffff;font-family:Lato,PingFang SC,Mircrosoft YaHei,Arial;font-size:12.00pt"><tspan x="51.6" y="26.0" style="font-family:Lato,PingFang SC,Mircrosoft YaHei,Arial">USB Device</tspan></text></g><g transform="translate(279.431000,552.500000)" id="shape8"><path stroke-width="2.666670083999634" stroke="#00c1de" fill="none" d="M522.0,55.5L522.0,.0L.0,.0L.0,55.5L522.0,55.5z"/><text xml:space="preserve" style="fill:#ffffff;font-family:Lato,PingFang SC,Mircrosoft YaHei,Arial;font-size:14.00pt"><tspan x="4.0" y="23.0" style="font-family:Lato,PingFang SC,Mircrosoft YaHei,Arial">CMSIS-Driver*</tspan></text></g><g transform="translate(414.397200,385.086600)" id="shape9"><path stroke-width="2" stroke="#ffffff" fill="none" d="M170.0,52.9L170.0,.0L.0,.0L.0,52.9L170.0,52.9z"/><text xml:space="preserve" style="fill:#ffffff;font-family:Lato,PingFang SC,Mircrosoft YaHei,Arial;font-size:9.00pt"><tspan x="70.6" y="26.0" style="font-family:Lato,PingFang SC,Mircrosoft YaHei,Arial;font-size:12.00pt">HID</tspan><tspan x="6.1" y="42.0" style="font-family:Lato,PingFang SC,Mircrosoft YaHei,Arial">Human Interface Device Class</tspan></text></g><g transform="translate(603.279200,385.086600)" id="shape10"><path stroke-width="2" stroke="#ffffff" fill="none" d="M186.4,52.9L186.4,.0L.0,.0L.0,52.9L186.4,52.9z"/><text xml:space="preserve" style="fill:#ffffff;font-family:Lato,PingFang SC,Mircrosoft YaHei,Arial;font-size:9.00pt"><tspan x="66.0" y="26.0" style="font-family:Lato,PingFang SC,Mircrosoft YaHei,Arial;font-size:12.00pt">Custom</tspan><tspan x="38.1" y="42.0" style="font-family:Lato,PingFang SC,Mircrosoft YaHei,Arial">Custom Device Class</tspan></text></g><path fill-rule="nonzero" transform="translate(264.859000,132.000000)" fill="#333e48" d="M551.1,162.0L551.1,.0L.0,.0L.0,162.0L551.1,162.0z" id="shape11"/><g transform="translate(414.397200,150.543300)" id="shape12"><path stroke-width="2" stroke="#ffffff" fill="none" d="M170.0,52.9L170.0,.0L.0,.0L.0,52.9L170.0,52.9z"/><text xml:space="preserve" style="fill:#ffffff;font-family:Lato,PingFang SC,Mircrosoft YaHei,Arial;font-size:9.00pt"><tspan x="67.9" y="26.0" style="font-family:Lato,PingFang SC,Mircrosoft YaHei,Arial;font-size:12.00pt">MSC</tspan><tspan x="34.7" y="42.0" style="font-family:Lato,PingFang SC,Mircrosoft YaHei,Arial">Mass Storage Class</tspan></text></g><g transform="translate(603.279200,150.543300)" id="shape13"><path stroke-width="2" stroke="#ffffff" fill="none" d="M186.4,52.9L186.4,.0L.0,.0L.0,52.9L186.4,52.9z"/><text xml:space="preserve" style="fill:#ffffff;font-family:Lato,PingFang SC,Mircrosoft YaHei,Arial;font-size:9.00pt"><tspan x="76.4" y="26.0" style="font-family:Lato,PingFang SC,Mircrosoft YaHei,Arial;font-size:12.00pt">CDC</tspan><tspan x="14.3" y="42.0" style="font-family:Lato,PingFang SC,Mircrosoft YaHei,Arial">Communications Device Class</tspan></text></g><g transform="translate(279.429000,143.000000)" id="shape14"><path stroke-width="2.666670083999634" stroke="#00c1de" fill="none" d="M522.0,136.0L522.0,.0L.0,.0L.0,136.0L522.0,136.0z"/><text xml:space="preserve" style="fill:#ffffff;font-family:Lato,PingFang SC,Mircrosoft YaHei,Arial;font-size:14.00pt"><tspan x="4.0" y="23.0" style="font-family:Lato,PingFang SC,Mircrosoft YaHei,Arial">USB Host</tspan></text></g><g transform="translate(414.397200,214.543300)" id="shape15"><path stroke-width="2" stroke="#ffffff" fill="none" d="M170.0,52.9L170.0,.0L.0,.0L.0,52.9L170.0,52.9z"/><text xml:space="preserve" style="fill:#ffffff;font-family:Lato,PingFang SC,Mircrosoft YaHei,Arial;font-size:9.00pt"><tspan x="70.6" y="26.0" style="font-family:Lato,PingFang SC,Mircrosoft YaHei,Arial;font-size:12.00pt">HID</tspan><tspan x="6.1" y="42.0" style="font-family:Lato,PingFang SC,Mircrosoft YaHei,Arial">Human Interface Device Class</tspan></text></g><g transform="translate(603.279200,214.543300)" id="shape16"><path stroke-width="2" stroke="#ffffff" fill="none" d="M186.4,52.9L186.4,.0L.0,.0L.0,52.9L186.4,52.9z"/><text xml:space="preserve" style="fill:#ffffff;font-family:Lato,PingFang SC,Mircrosoft YaHei,Arial;font-size:9.00pt"><tspan x="66.0" y="26.0" style="font-family:Lato,PingFang SC,Mircrosoft YaHei,Arial;font-size:12.00pt">Custom</tspan><tspan x="57.7" y="42.0" style="font-family:Lato,PingFang SC,Mircrosoft YaHei,Arial">Custom Class</tspan></text></g><g transform="translate(414.397200,453.086600)" id="shape17"><path stroke-width="2" stroke="#ffffff" fill="none" d="M170.0,52.9L170.0,.0L.0,.0L.0,52.9L170.0,52.9z"/><text xml:space="preserve" style="fill:#ffffff;font-family:Lato,PingFang SC,Mircrosoft YaHei,Arial;font-size:9.00pt"><tspan x="68.2" y="26.0" style="font-family:Lato,PingFang SC,Mircrosoft YaHei,Arial;font-size:12.00pt">ADC</tspan><tspan x="34.7" y="42.0" style="font-family:Lato,PingFang SC,Mircrosoft YaHei,Arial">Audio Device Class</tspan></text></g><path fill-rule="nonzero" transform="translate(264.289000,45.000000)" fill="#333e48" d="M551.7,80.0L551.7,.0L.0,.0L.0,80.0L551.7,80.0z" id="shape18"/><g transform="translate(413.827200,66.000000)" id="shape19"><path stroke-width="2" stroke="#ffffff" fill="none" d="M170.0,38.0L170.0,.0L.0,.0L.0,38.0L170.0,38.0z"/><text xml:space="preserve" style="fill:#ffffff;font-family:Lato,PingFang SC,Mircrosoft YaHei,Arial;font-size:12.00pt"><tspan x="31.9" y="26.0" style="font-family:Lato,PingFang SC,Mircrosoft YaHei,Arial">USB Host Core</tspan></text></g><g transform="translate(602.709200,66.000000)" id="shape20"><path stroke-width="2" stroke="#ffffff" fill="none" d="M186.4,38.0L186.4,.0L.0,.0L.0,38.0L186.4,38.0z"/><text xml:space="preserve" style="fill:#ffffff;font-family:Lato,PingFang SC,Mircrosoft YaHei,Arial;font-size:12.00pt"><tspan x="32.8" y="26.0" style="font-family:Lato,PingFang SC,Mircrosoft YaHei,Arial">USB Device Core</tspan></text></g><g transform="translate(278.859000,57.500000)" id="shape21"><path stroke-width="2.666670083999634" stroke="#00c1de" fill="none" d="M522.0,55.5L522.0,.0L.0,.0L.0,55.5L522.0,55.5z"/><text xml:space="preserve" style="fill:#ffffff;font-family:Lato,PingFang SC,Mircrosoft YaHei,Arial;font-size:14.00pt"><tspan x="4.0" y="23.0" style="font-family:Lato,PingFang SC,Mircrosoft YaHei,Arial">USB</tspan></text></g><g transform="translate(265.432000,627.000000)" id="shape22"><path fill-rule="nonzero" fill-opacity="0.40" fill="#ffffff" d="M.0,.0L319.0,.0L319.0,23.0L.0,23.0L.0,.0z"/><text xml:space="preserve" style="fill:#191919;font-family:Arial,PingFang SC,Mircrosoft YaHei,Arial;font-size:9.00pt"><tspan x="4.5" y="16.0" style="font-family:Arial,PingFang SC,Mircrosoft YaHei,Arial">*These components are not part of the USB component</tspan></text></g></g></svg>